<?xml version="1.0" encoding="UTF-8"?>
<!-- Generated by Pixelmator Pro 3.7 -->
<svg width="1024" height="1024" viewBox="0 0 1024 1024" xmlns="http://www.w3.org/2000/svg">
    <path id="Lune-copie" fill="#fdfeac" fill-rule="evenodd" stroke="none" d="M 761.113831 259.892212 C 731.105896 229.809082 717.151917 187.272461 723.508972 145.259949 C 729.865723 103.247681 755.779602 66.743225 793.344177 46.884827 C 804.237549 41.141052 811.019775 39.332336 814.360901 42.683533 C 817.941895 46.26062 816.911804 49.222473 812.260132 65.805725 C 800.946472 106.167786 809.019104 153.652039 838.188416 182.820374 C 867.35791 211.988647 914.84314 220.059387 955.206238 208.745667 C 971.781372 204.097229 974.742249 203.065857 978.323486 206.645142 C 981.674683 209.993164 979.864014 216.773376 974.122192 227.665833 C 954.259155 265.225952 917.754944 291.135437 875.744141 297.491333 C 833.733337 303.847168 791.198425 289.89563 761.113831 259.892212 Z"/>
</svg>
